<?xml version="1.0" encoding="utf-8"?>
<!-- Generator: Adobe Illustrator 18.1.0, SVG Export Plug-In . SVG Version: 6.00 Build 0)  -->
<svg version="1.2" baseProfile="tiny" id="Layer_1" xmlns="http://www.w3.org/2000/svg" xmlns:xlink="http://www.w3.org/1999/xlink"
	 x="0px" y="0px" viewBox="0 0 1224 792" xml:space="preserve">
<g>
	<polygon fill="#FFFFFF" points="37.5,230.3 76,230.3 76,285.7 169.1,230.3 221.9,230.3 136.6,278.9 227.1,349.8 175.4,349.8 
		106.8,294.7 76,312.6 76,349.8 37.5,349.8 	"/>
	<polygon fill="#FFFFFF" points="310,304.2 230.3,230.3 277,230.3 329.2,283.4 381.4,230.3 428.1,230.3 348.5,304.2 348.5,349.8 
		310,349.8 	"/>
	<polygon fill="#FFFFFF" points="446.1,230.3 495.1,230.3 551.9,291.8 608,230.3 656.6,230.3 656.6,349.8 624.7,349.8 626,250.9 
		625.5,250.9 551.6,327.1 477.2,250.9 476.7,250.9 478,349.8 446.1,349.8 	"/>
	<g>
		<polygon fill="#FFFFFF" points="721.5,297.9 803.8,297.9 803.8,279.4 683.2,279.4 683.2,349.8 843.6,349.8 843.6,328.2 
			721.5,328.2 		"/>
		<rect x="909.3" y="279.4" fill="#FFFFFF" width="38.2" height="70.4"/>
	</g>
	<path fill="#FFFFFF" d="M1114.3,230.3H1071l-77.6,119.5h39.6l17.9-29.5h81.8l18.2,29.5h40.6L1114.3,230.3z M1062,301.3l30.1-50.4
		l29.8,50.4H1062z"/>
	<g>
		<path fill="#FFFFFF" d="M1140.6,231.9h-5.5v12.1h-2.1v-12.1h-5.5v-1.3h13.2V231.9z M1161.7,243.8h-2.1v-11.9l0,0l-6.1,11.9h-1.3
			l-6.1-11.9l0,0v11.9h-2.1v-13.5h4l4.7,10l0,0l5-9.8h4V243.8z"/>
	</g>
	<rect x="680.6" y="230.1" fill="#56A0D3" width="346.1" height="29.8"/>
</g>
</svg>
